<svg width="259" height="120" viewBox="0 0 259 120" fill="none" xmlns="http://www.w3.org/2000/svg">
<g opacity="0.1">
<path d="M4.22647 2.38855C4.22647 3.45315 3.36386 4.31617 2.29976 4.31617C1.23567 4.31617 0.373047 3.45315 0.373047 2.38855C0.373047 1.32396 1.23567 0.460938 2.29976 0.460938C3.36386 0.460938 4.22647 1.32396 4.22647 2.38855Z" fill="#0016DA"></path>
<path d="M4.22647 25.52C4.22647 26.5845 3.36386 27.4476 2.29976 27.4476C1.23567 27.4476 0.373047 26.5845 0.373047 25.52C0.373047 24.4554 1.23567 23.5923 2.29976 23.5923C3.36386 23.5923 4.22647 24.4554 4.22647 25.52Z" fill="#0016DA"></path>
<path d="M4.22647 48.6513C4.22647 49.7159 3.36386 50.579 2.29976 50.579C1.23567 50.579 0.373047 49.7159 0.373047 48.6513C0.373047 47.5868 1.23567 46.7237 2.29976 46.7237C3.36386 46.7237 4.22647 47.5868 4.22647 48.6513Z" fill="#0016DA"></path>
<path d="M4.22647 71.7827C4.22647 72.8473 3.36386 73.7104 2.29976 73.7104C1.23567 73.7104 0.373047 72.8473 0.373047 71.7827C0.373047 70.7182 1.23567 69.8551 2.29976 69.8551C3.36386 69.8551 4.22647 70.7182 4.22647 71.7827Z" fill="#0016DA"></path>
<path d="M4.22647 94.9141C4.22647 95.9787 3.36386 96.8418 2.29976 96.8418C1.23567 96.8418 0.373047 95.9787 0.373047 94.9141C0.373047 93.8496 1.23567 92.9865 2.29976 92.9865C3.36386 92.9865 4.22647 93.8496 4.22647 94.9141Z" fill="#0016DA"></path>
<path d="M4.22647 118.046C4.22647 119.11 3.36386 119.973 2.29976 119.973C1.23567 119.973 0.373047 119.11 0.373047 118.046C0.373047 116.981 1.23567 116.118 2.29976 116.118C3.36386 116.118 4.22647 116.981 4.22647 118.046Z" fill="#0016DA"></path>
<path d="M27.347 2.38855C27.347 3.45315 26.4844 4.31617 25.4203 4.31617C24.3562 4.31617 23.4936 3.45315 23.4936 2.38855C23.4936 1.32396 24.3562 0.460938 25.4203 0.460938C26.4844 0.460938 27.347 1.32396 27.347 2.38855Z" fill="#0016DA"></path>
<path d="M27.347 25.52C27.347 26.5845 26.4844 27.4476 25.4203 27.4476C24.3562 27.4476 23.4936 26.5845 23.4936 25.52C23.4936 24.4554 24.3562 23.5923 25.4203 23.5923C26.4844 23.5923 27.347 24.4554 27.347 25.52Z" fill="#0016DA"></path>
<path d="M27.347 48.6513C27.347 49.7159 26.4844 50.579 25.4203 50.579C24.3562 50.579 23.4936 49.7159 23.4936 48.6513C23.4936 47.5868 24.3562 46.7237 25.4203 46.7237C26.4844 46.7237 27.347 47.5868 27.347 48.6513Z" fill="#0016DA"></path>
<path d="M27.347 71.7827C27.347 72.8473 26.4844 73.7104 25.4203 73.7104C24.3562 73.7104 23.4936 72.8473 23.4936 71.7827C23.4936 70.7182 24.3562 69.8551 25.4203 69.8551C26.4844 69.8551 27.347 70.7182 27.347 71.7827Z" fill="#0016DA"></path>
<path d="M27.347 94.9141C27.347 95.9787 26.4844 96.8418 25.4203 96.8418C24.3562 96.8418 23.4936 95.9787 23.4936 94.9141C23.4936 93.8496 24.3562 92.9865 25.4203 92.9865C26.4844 92.9865 27.347 93.8496 27.347 94.9141Z" fill="#0016DA"></path>
<path d="M27.347 118.046C27.347 119.11 26.4844 119.973 25.4203 119.973C24.3562 119.973 23.4936 119.11 23.4936 118.046C23.4936 116.981 24.3562 116.118 25.4203 116.118C26.4844 116.118 27.347 116.981 27.347 118.046Z" fill="#0016DA"></path>
<path d="M50.4676 2.38855C50.4676 3.45315 49.605 4.31617 48.5409 4.31617C47.4768 4.31617 46.6142 3.45315 46.6142 2.38855C46.6142 1.32396 47.4768 0.460938 48.5409 0.460938C49.605 0.460938 50.4676 1.32396 50.4676 2.38855Z" fill="#0016DA"></path>
<path d="M50.4676 25.52C50.4676 26.5845 49.605 27.4476 48.5409 27.4476C47.4768 27.4476 46.6142 26.5845 46.6142 25.52C46.6142 24.4554 47.4768 23.5923 48.5409 23.5923C49.605 23.5923 50.4676 24.4554 50.4676 25.52Z" fill="#0016DA"></path>
<path d="M50.4676 48.6513C50.4676 49.7159 49.605 50.579 48.5409 50.579C47.4768 50.579 46.6142 49.7159 46.6142 48.6513C46.6142 47.5868 47.4768 46.7237 48.5409 46.7237C49.605 46.7237 50.4676 47.5868 50.4676 48.6513Z" fill="#0016DA"></path>
<path d="M50.4676 71.7827C50.4676 72.8473 49.605 73.7104 48.5409 73.7104C47.4768 73.7104 46.6142 72.8473 46.6142 71.7827C46.6142 70.7182 47.4768 69.8551 48.5409 69.8551C49.605 69.8551 50.4676 70.7182 50.4676 71.7827Z" fill="#0016DA"></path>
<path d="M50.4676 94.9141C50.4676 95.9787 49.605 96.8418 48.5409 96.8418C47.4768 96.8418 46.6142 95.9787 46.6142 94.9141C46.6142 93.8496 47.4768 92.9865 48.5409 92.9865C49.605 92.9865 50.4676 93.8496 50.4676 94.9141Z" fill="#0016DA"></path>
<path d="M50.4676 118.046C50.4676 119.11 49.605 119.973 48.5409 119.973C47.4768 119.973 46.6142 119.11 46.6142 118.046C46.6142 116.981 47.4768 116.118 48.5409 116.118C49.605 116.118 50.4676 116.981 50.4676 118.046Z" fill="#0016DA"></path>
<path d="M73.5882 2.38855C73.5882 3.45315 72.7255 4.31617 71.6615 4.31617C70.5974 4.31617 69.7347 3.45315 69.7347 2.38855C69.7347 1.32396 70.5974 0.460938 71.6615 0.460938C72.7255 0.460938 73.5882 1.32396 73.5882 2.38855Z" fill="#0016DA"></path>
<path d="M73.5882 25.52C73.5882 26.5845 72.7255 27.4476 71.6615 27.4476C70.5974 27.4476 69.7347 26.5845 69.7347 25.52C69.7347 24.4554 70.5974 23.5923 71.6615 23.5923C72.7255 23.5923 73.5882 24.4554 73.5882 25.52Z" fill="#0016DA"></path>
<path d="M73.5882 48.6513C73.5882 49.7159 72.7255 50.579 71.6615 50.579C70.5974 50.579 69.7347 49.7159 69.7347 48.6513C69.7347 47.5868 70.5974 46.7237 71.6615 46.7237C72.7255 46.7237 73.5882 47.5868 73.5882 48.6513Z" fill="#0016DA"></path>
<path d="M73.5882 71.7827C73.5882 72.8473 72.7255 73.7104 71.6615 73.7104C70.5974 73.7104 69.7347 72.8473 69.7347 71.7827C69.7347 70.7182 70.5974 69.8551 71.6615 69.8551C72.7255 69.8551 73.5882 70.7182 73.5882 71.7827Z" fill="#0016DA"></path>
<path d="M73.5882 94.9141C73.5882 95.9787 72.7255 96.8418 71.6615 96.8418C70.5974 96.8418 69.7347 95.9787 69.7347 94.9141C69.7347 93.8496 70.5974 92.9865 71.6615 92.9865C72.7255 92.9865 73.5882 93.8496 73.5882 94.9141Z" fill="#0016DA"></path>
<path d="M73.5882 118.046C73.5882 119.11 72.7255 119.973 71.6615 119.973C70.5974 119.973 69.7347 119.11 69.7347 118.046C69.7347 116.981 70.5974 116.118 71.6615 116.118C72.7255 116.118 73.5882 116.981 73.5882 118.046Z" fill="#0016DA"></path>
<path d="M96.7087 2.38855C96.7087 3.45315 95.8461 4.31617 94.782 4.31617C93.7179 4.31617 92.8553 3.45315 92.8553 2.38855C92.8553 1.32396 93.7179 0.460938 94.782 0.460938C95.8461 0.460938 96.7087 1.32396 96.7087 2.38855Z" fill="#0016DA"></path>
<path d="M96.7087 25.52C96.7087 26.5845 95.8461 27.4476 94.782 27.4476C93.7179 27.4476 92.8553 26.5845 92.8553 25.52C92.8553 24.4554 93.7179 23.5923 94.782 23.5923C95.8461 23.5923 96.7087 24.4554 96.7087 25.52Z" fill="#0016DA"></path>
<path d="M96.7087 48.6513C96.7087 49.7159 95.8461 50.579 94.782 50.579C93.7179 50.579 92.8553 49.7159 92.8553 48.6513C92.8553 47.5868 93.7179 46.7237 94.782 46.7237C95.8461 46.7237 96.7087 47.5868 96.7087 48.6513Z" fill="#0016DA"></path>
<path d="M96.7087 71.7827C96.7087 72.8473 95.8461 73.7104 94.782 73.7104C93.7179 73.7104 92.8553 72.8473 92.8553 71.7827C92.8553 70.7182 93.7179 69.8551 94.782 69.8551C95.8461 69.8551 96.7087 70.7182 96.7087 71.7827Z" fill="#0016DA"></path>
<path d="M96.7087 94.9141C96.7087 95.9787 95.8461 96.8418 94.782 96.8418C93.7179 96.8418 92.8553 95.9787 92.8553 94.9141C92.8553 93.8496 93.7179 92.9865 94.782 92.9865C95.8461 92.9865 96.7087 93.8496 96.7087 94.9141Z" fill="#0016DA"></path>
<path d="M96.7087 118.046C96.7087 119.11 95.8461 119.973 94.782 119.973C93.7179 119.973 92.8553 119.11 92.8553 118.046C92.8553 116.981 93.7179 116.118 94.782 116.118C95.8461 116.118 96.7087 116.981 96.7087 118.046Z" fill="#0016DA"></path>
<path d="M119.829 2.38855C119.829 3.45315 118.967 4.31617 117.903 4.31617C116.838 4.31617 115.976 3.45315 115.976 2.38855C115.976 1.32396 116.838 0.460938 117.903 0.460938C118.967 0.460938 119.829 1.32396 119.829 2.38855Z" fill="#0016DA"></path>
<path d="M119.829 25.52C119.829 26.5845 118.967 27.4476 117.903 27.4476C116.838 27.4476 115.976 26.5845 115.976 25.52C115.976 24.4554 116.838 23.5923 117.903 23.5923C118.967 23.5923 119.829 24.4554 119.829 25.52Z" fill="#0016DA"></path>
<path d="M119.829 48.6513C119.829 49.7159 118.967 50.579 117.903 50.579C116.838 50.579 115.976 49.7159 115.976 48.6513C115.976 47.5868 116.838 46.7237 117.903 46.7237C118.967 46.7237 119.829 47.5868 119.829 48.6513Z" fill="#0016DA"></path>
<path d="M119.829 71.7827C119.829 72.8473 118.967 73.7104 117.903 73.7104C116.838 73.7104 115.976 72.8473 115.976 71.7827C115.976 70.7182 116.838 69.8551 117.903 69.8551C118.967 69.8551 119.829 70.7182 119.829 71.7827Z" fill="#0016DA"></path>
<path d="M119.829 94.9141C119.829 95.9787 118.967 96.8418 117.903 96.8418C116.838 96.8418 115.976 95.9787 115.976 94.9141C115.976 93.8496 116.838 92.9865 117.903 92.9865C118.967 92.9865 119.829 93.8496 119.829 94.9141Z" fill="#0016DA"></path>
<path d="M119.829 118.046C119.829 119.11 118.967 119.973 117.903 119.973C116.838 119.973 115.976 119.11 115.976 118.046C115.976 116.981 116.838 116.118 117.903 116.118C118.967 116.118 119.829 116.981 119.829 118.046Z" fill="#0016DA"></path>
<path d="M142.95 2.38855C142.95 3.45315 142.087 4.31617 141.023 4.31617C139.959 4.31617 139.096 3.45315 139.096 2.38855C139.096 1.32396 139.959 0.460938 141.023 0.460938C142.087 0.460938 142.95 1.32396 142.95 2.38855Z" fill="#0016DA"></path>
<path d="M142.95 25.52C142.95 26.5845 142.087 27.4476 141.023 27.4476C139.959 27.4476 139.096 26.5845 139.096 25.52C139.096 24.4554 139.959 23.5923 141.023 23.5923C142.087 23.5923 142.95 24.4554 142.95 25.52Z" fill="#0016DA"></path>
<path d="M142.95 48.6513C142.95 49.7159 142.087 50.579 141.023 50.579C139.959 50.579 139.096 49.7159 139.096 48.6513C139.096 47.5868 139.959 46.7237 141.023 46.7237C142.087 46.7237 142.95 47.5868 142.95 48.6513Z" fill="#0016DA"></path>
<path d="M142.95 71.7827C142.95 72.8473 142.087 73.7104 141.023 73.7104C139.959 73.7104 139.096 72.8473 139.096 71.7827C139.096 70.7182 139.959 69.8551 141.023 69.8551C142.087 69.8551 142.95 70.7182 142.95 71.7827Z" fill="#0016DA"></path>
<path d="M142.95 94.9141C142.95 95.9787 142.087 96.8418 141.023 96.8418C139.959 96.8418 139.096 95.9787 139.096 94.9141C139.096 93.8496 139.959 92.9865 141.023 92.9865C142.087 92.9865 142.95 93.8496 142.95 94.9141Z" fill="#0016DA"></path>
<path d="M142.95 118.046C142.95 119.11 142.087 119.973 141.023 119.973C139.959 119.973 139.096 119.11 139.096 118.046C139.096 116.981 139.959 116.118 141.023 116.118C142.087 116.118 142.95 116.981 142.95 118.046Z" fill="#0016DA"></path>
<path d="M166.07 2.38855C166.07 3.45315 165.208 4.31617 164.144 4.31617C163.08 4.31617 162.217 3.45315 162.217 2.38855C162.217 1.32396 163.08 0.460938 164.144 0.460938C165.208 0.460938 166.07 1.32396 166.07 2.38855Z" fill="#0016DA"></path>
<path d="M166.07 25.52C166.07 26.5845 165.208 27.4476 164.144 27.4476C163.08 27.4476 162.217 26.5845 162.217 25.52C162.217 24.4554 163.08 23.5923 164.144 23.5923C165.208 23.5923 166.07 24.4554 166.07 25.52Z" fill="#0016DA"></path>
<path d="M166.07 48.6513C166.07 49.7159 165.208 50.579 164.144 50.579C163.08 50.579 162.217 49.7159 162.217 48.6513C162.217 47.5868 163.08 46.7237 164.144 46.7237C165.208 46.7237 166.07 47.5868 166.07 48.6513Z" fill="#0016DA"></path>
<path d="M166.07 71.7827C166.07 72.8473 165.208 73.7104 164.144 73.7104C163.08 73.7104 162.217 72.8473 162.217 71.7827C162.217 70.7182 163.08 69.8551 164.144 69.8551C165.208 69.8551 166.07 70.7182 166.07 71.7827Z" fill="#0016DA"></path>
<path d="M166.07 94.9141C166.07 95.9787 165.208 96.8418 164.144 96.8418C163.08 96.8418 162.217 95.9787 162.217 94.9141C162.217 93.8496 163.08 92.9865 164.144 92.9865C165.208 92.9865 166.07 93.8496 166.07 94.9141Z" fill="#0016DA"></path>
<path d="M166.07 118.046C166.07 119.11 165.208 119.973 164.144 119.973C163.08 119.973 162.217 119.11 162.217 118.046C162.217 116.981 163.08 116.118 164.144 116.118C165.208 116.118 166.07 116.981 166.07 118.046Z" fill="#0016DA"></path>
<path d="M189.191 2.38855C189.191 3.45315 188.328 4.31617 187.264 4.31617C186.2 4.31617 185.338 3.45315 185.338 2.38855C185.338 1.32396 186.2 0.460938 187.264 0.460938C188.328 0.460938 189.191 1.32396 189.191 2.38855Z" fill="#0016DA"></path>
<path d="M189.191 25.52C189.191 26.5845 188.328 27.4476 187.264 27.4476C186.2 27.4476 185.338 26.5845 185.338 25.52C185.338 24.4554 186.2 23.5923 187.264 23.5923C188.328 23.5923 189.191 24.4554 189.191 25.52Z" fill="#0016DA"></path>
<path d="M189.191 48.6513C189.191 49.7159 188.328 50.579 187.264 50.579C186.2 50.579 185.338 49.7159 185.338 48.6513C185.338 47.5868 186.2 46.7237 187.264 46.7237C188.328 46.7237 189.191 47.5868 189.191 48.6513Z" fill="#0016DA"></path>
<path d="M189.191 71.7827C189.191 72.8473 188.328 73.7104 187.264 73.7104C186.2 73.7104 185.338 72.8473 185.338 71.7827C185.338 70.7182 186.2 69.8551 187.264 69.8551C188.328 69.8551 189.191 70.7182 189.191 71.7827Z" fill="#0016DA"></path>
<path d="M189.191 94.9141C189.191 95.9787 188.328 96.8418 187.264 96.8418C186.2 96.8418 185.338 95.9787 185.338 94.9141C185.338 93.8496 186.2 92.9865 187.264 92.9865C188.328 92.9865 189.191 93.8496 189.191 94.9141Z" fill="#0016DA"></path>
<path d="M189.191 118.046C189.191 119.11 188.328 119.973 187.264 119.973C186.2 119.973 185.338 119.11 185.338 118.046C185.338 116.981 186.2 116.118 187.264 116.118C188.328 116.118 189.191 116.981 189.191 118.046Z" fill="#0016DA"></path>
<path d="M212.312 2.38855C212.312 3.45315 211.449 4.31617 210.385 4.31617C209.321 4.31617 208.458 3.45315 208.458 2.38855C208.458 1.32396 209.321 0.460938 210.385 0.460938C211.449 0.460938 212.312 1.32396 212.312 2.38855Z" fill="#0016DA"></path>
<path d="M212.312 25.52C212.312 26.5845 211.449 27.4476 210.385 27.4476C209.321 27.4476 208.458 26.5845 208.458 25.52C208.458 24.4554 209.321 23.5923 210.385 23.5923C211.449 23.5923 212.312 24.4554 212.312 25.52Z" fill="#0016DA"></path>
<path d="M212.312 48.6513C212.312 49.7159 211.449 50.579 210.385 50.579C209.321 50.579 208.458 49.7159 208.458 48.6513C208.458 47.5868 209.321 46.7237 210.385 46.7237C211.449 46.7237 212.312 47.5868 212.312 48.6513Z" fill="#0016DA"></path>
<path d="M212.312 71.7827C212.312 72.8473 211.449 73.7104 210.385 73.7104C209.321 73.7104 208.458 72.8473 208.458 71.7827C208.458 70.7182 209.321 69.8551 210.385 69.8551C211.449 69.8551 212.312 70.7182 212.312 71.7827Z" fill="#0016DA"></path>
<path d="M212.312 94.9141C212.312 95.9787 211.449 96.8418 210.385 96.8418C209.321 96.8418 208.458 95.9787 208.458 94.9141C208.458 93.8496 209.321 92.9865 210.385 92.9865C211.449 92.9865 212.312 93.8496 212.312 94.9141Z" fill="#0016DA"></path>
<path d="M212.312 118.046C212.312 119.11 211.449 119.973 210.385 119.973C209.321 119.973 208.458 119.11 208.458 118.046C208.458 116.981 209.321 116.118 210.385 116.118C211.449 116.118 212.312 116.981 212.312 118.046Z" fill="#0016DA"></path>
<path d="M235.432 2.38855C235.432 3.45315 234.57 4.31617 233.505 4.31617C232.441 4.31617 231.579 3.45315 231.579 2.38855C231.579 1.32396 232.441 0.460938 233.505 0.460938C234.57 0.460938 235.432 1.32396 235.432 2.38855Z" fill="#0016DA"></path>
<path d="M235.432 25.52C235.432 26.5845 234.57 27.4476 233.505 27.4476C232.441 27.4476 231.579 26.5845 231.579 25.52C231.579 24.4554 232.441 23.5923 233.505 23.5923C234.57 23.5923 235.432 24.4554 235.432 25.52Z" fill="#0016DA"></path>
<path d="M235.432 48.6513C235.432 49.7159 234.57 50.579 233.505 50.579C232.441 50.579 231.579 49.7159 231.579 48.6513C231.579 47.5868 232.441 46.7237 233.505 46.7237C234.57 46.7237 235.432 47.5868 235.432 48.6513Z" fill="#0016DA"></path>
<path d="M235.432 71.7827C235.432 72.8473 234.57 73.7104 233.505 73.7104C232.441 73.7104 231.579 72.8473 231.579 71.7827C231.579 70.7182 232.441 69.8551 233.505 69.8551C234.57 69.8551 235.432 70.7182 235.432 71.7827Z" fill="#0016DA"></path>
<path d="M235.432 94.9141C235.432 95.9787 234.57 96.8418 233.505 96.8418C232.441 96.8418 231.579 95.9787 231.579 94.9141C231.579 93.8496 232.441 92.9865 233.505 92.9865C234.57 92.9865 235.432 93.8496 235.432 94.9141Z" fill="#0016DA"></path>
<path d="M235.432 118.046C235.432 119.11 234.57 119.973 233.505 119.973C232.441 119.973 231.579 119.11 231.579 118.046C231.579 116.981 232.441 116.118 233.505 116.118C234.57 116.118 235.432 116.981 235.432 118.046Z" fill="#0016DA"></path>
<path d="M258.553 2.38855C258.553 3.45315 257.69 4.31617 256.626 4.31617C255.562 4.31617 254.699 3.45315 254.699 2.38855C254.699 1.32396 255.562 0.460938 256.626 0.460938C257.69 0.460938 258.553 1.32396 258.553 2.38855Z" fill="#0016DA"></path>
<path d="M258.553 25.52C258.553 26.5845 257.69 27.4476 256.626 27.4476C255.562 27.4476 254.699 26.5845 254.699 25.52C254.699 24.4554 255.562 23.5923 256.626 23.5923C257.69 23.5923 258.553 24.4554 258.553 25.52Z" fill="#0016DA"></path>
<path d="M258.553 48.6513C258.553 49.7159 257.69 50.579 256.626 50.579C255.562 50.579 254.699 49.7159 254.699 48.6513C254.699 47.5868 255.562 46.7237 256.626 46.7237C257.69 46.7237 258.553 47.5868 258.553 48.6513Z" fill="#0016DA"></path>
<path d="M258.553 71.7827C258.553 72.8473 257.69 73.7104 256.626 73.7104C255.562 73.7104 254.699 72.8473 254.699 71.7827C254.699 70.7182 255.562 69.8551 256.626 69.8551C257.69 69.8551 258.553 70.7182 258.553 71.7827Z" fill="#0016DA"></path>
<path d="M258.553 94.9141C258.553 95.9787 257.69 96.8418 256.626 96.8418C255.562 96.8418 254.699 95.9787 254.699 94.9141C254.699 93.8496 255.562 92.9865 256.626 92.9865C257.69 92.9865 258.553 93.8496 258.553 94.9141Z" fill="#0016DA"></path>
<path d="M258.553 118.046C258.553 119.11 257.69 119.973 256.626 119.973C255.562 119.973 254.699 119.11 254.699 118.046C254.699 116.981 255.562 116.118 256.626 116.118C257.69 116.118 258.553 116.981 258.553 118.046Z" fill="#0016DA"></path>
</g>
</svg>