<svg width="19" height="20" viewBox="0 0 19 20" fill="none" xmlns="http://www.w3.org/2000/svg">
<path id="Icon" fill-rule="evenodd" clip-rule="evenodd" d="M1.07314 5.74125C2.51464 2.27317 5.89211 0.0101647 9.64161 0.000130486C13.6827 -0.021191 17.2759 2.57228 18.5356 6.41951C19.7952 10.2667 18.4336 14.4889 15.1653 16.8701C11.8969 19.2514 7.46847 19.2479 4.20393 16.8613L1.29306 19.7779C0.997098 20.074 0.517648 20.074 0.221691 19.7779C-0.0738972 19.4813 -0.0738972 19.001 0.221691 18.7044L3.0416 15.879C0.407566 13.2054 -0.368351 9.20932 1.07314 5.74125ZM2.42463 12.3234C3.63494 15.2457 6.48385 17.149 9.64161 17.1449V17.1044C13.9274 17.0989 17.4065 13.6311 17.4343 9.33709C17.4383 6.17319 15.5388 3.31875 12.6222 2.10608C9.70555 0.893417 6.34699 1.56164 4.11412 3.79886C1.88125 6.03607 1.21432 9.40116 2.42463 12.3234Z" fill="#0016DA"/>
</svg>
