<svg width="71" height="59" viewBox="0 0 71 59" fill="none" xmlns="http://www.w3.org/2000/svg">
<g opacity="0.1">
<path d="M47.3519 58.9057C47.3358 59.0314 47.1536 59.0314 47.1375 58.9057L44.827 40.8014C44.6803 39.652 43.775 38.7471 42.6252 38.6005L24.5135 36.2909C24.3876 36.2749 24.3876 36.0927 24.5135 36.0766L42.6252 33.7671C43.775 33.6204 44.6803 32.7155 44.827 31.5662L47.1375 13.4619C47.1536 13.3361 47.3358 13.3361 47.3519 13.4619L49.6624 31.5662C49.8091 32.7155 50.7144 33.6204 51.8642 33.7671L69.9759 36.0766C70.1018 36.0927 70.1018 36.2749 69.9759 36.2909L51.8642 38.6005C50.7144 38.7471 49.8091 39.652 49.6624 40.8014L47.3519 58.9057Z" fill="#0016DA"></path>
<path d="M11.0983 21.9021C11.0888 21.9596 11.0061 21.9596 10.9966 21.9021L9.60577 13.4617C9.51714 12.9239 9.09541 12.5023 8.55733 12.4137L0.11348 11.0235C0.0559311 11.014 0.0559311 10.9313 0.11348 10.9218L8.55733 9.53153C9.09541 9.44294 9.51714 9.02138 9.60577 8.48352L10.9966 0.0431404C11.0061 -0.0143852 11.0888 -0.0143852 11.0983 0.0431404L12.4891 8.48352C12.5778 9.02138 12.9995 9.44294 13.5376 9.53153L21.9814 10.9218C22.039 10.9313 22.039 11.014 21.9814 11.0235L13.5376 12.4137C12.9995 12.5023 12.5778 12.9239 12.4891 13.4617L11.0983 21.9021Z" fill="#0016DA"></path>
</g>
</svg>